<svg style="max-height: 500px" version="1.0" xmlns="http://www.w3.org/2000/svg" viewBox="65.25558858 128.0049235335689 38.544599999999996 41.21554770318021" preserveAspectRatio="xMidYMid meet" width="38.544599999999996" height="41.21554770318021">
<metadata>
Created by potrace 1.10, written by Peter Selinger 2001-2011
</metadata>
<g transform="translate(0.000000,300.000000) scale(0.100000,-0.100000)" fill="#000000" stroke="none">
<path d="M756 1664 l-78 -46 28 -17 c29 -18 29 -18 62 10 26 23 42 29 80 29&#10;26 0 57 -7 68 -15 23 -16 34 -11 34 16 0 17 -79 69 -104 69 -6 0 -46 -21 -90&#10;-46z"/>
<path d="M803 1605 c-53 -23 -70 -78 -30 -96 21 -9 28 -6 56 21 27 28 37 32&#10;66 27 32 -5 35 -3 35 18 0 17 -8 26 -31 34 -41 14 -57 13 -96 -4z"/>
<path d="M1840 1558 c0 -49 -1 -50 -18 -35 -48 44 -122 3 -122 -67 0 -49 12&#10;-70 49 -85 24 -10 34 -10 60 3 17 9 31 12 31 6 0 -5 7 -10 15 -10 13 0 15 20&#10;15 120 0 100 -2 120 -15 120 -11 0 -15 -12 -15 -52z m-25 -63 c28 -27 29 -33&#10;15 -69 -12 -34 -54 -44 -80 -21 -28 25 -27 79 2 99 30 21 35 20 63 -9z"/>
<path d="M1922 1593 c2 -10 10 -18 18 -18 8 0 16 8 18 18 2 12 -3 17 -18 17&#10;-15 0 -20 -5 -18 -17z"/>
<path d="M2030 1591 c-5 -11 -10 -27 -10 -35 0 -9 -7 -16 -15 -16 -8 0 -15 -5&#10;-15 -10 0 -6 7 -13 15 -16 11 -5 15 -23 15 -75 0 -55 3 -69 15 -69 12 0 15 14&#10;15 70 0 63 2 70 20 70 11 0 20 7 20 15 0 8 -9 15 -20 15 -28 0 -25 29 5 40 34&#10;13 32 30 -5 30 -19 0 -33 -7 -40 -19z"/>
<path d="M1174 1581 c-115 -70 -24 -259 100 -207 41 17 66 51 66 88 0 27 -2&#10;28 -55 28 -42 0 -55 -3 -55 -15 0 -11 11 -15 40 -15 45 0 49 -7 21 -41 -23&#10;-29 -81 -31 -110 -5 -29 26 -36 77 -17 114 26 50 81 57 122 17 24 -24 54 -34&#10;54 -17 -1 13 -34 49 -57 61 -32 16 -74 13 -109 -8z"/>
<path d="M677 1548 c-6 -44 5 -70 22 -52 11 10 3 94 -9 94 -4 0 -10 -19 -13&#10;-42z"/>
<path d="M1388 1455 c-3 -76 -1 -85 15 -85 14 0 17 9 17 58 0 60 11 82 42 82&#10;10 0 18 7 18 15 0 20 -29 19 -52 -2 -18 -16 -18 -16 -12 0 4 11 1 17 -9 17&#10;-13 0 -16 -17 -19 -85z"/>
<path d="M1528 1518 c-20 -20 -21 -23 -5 -26 9 -2 24 4 33 12 8 9 19 16 24 16&#10;22 0 40 -14 40 -31 0 -15 -7 -19 -35 -19 -49 0 -91 -40 -75 -70 18 -34 55 -46&#10;84 -26 29 18 40 21 31 6 -3 -5 2 -10 12 -10 17 0 18 7 15 73 -4 81 -16 97 -69&#10;97 -21 0 -41 -8 -55 -22z m92 -88 c0 -23 -40 -46 -64 -37 -23 9 -19 36 7 47&#10;38 15 57 12 57 -10z"/>
<path d="M1920 1455 c0 -78 2 -85 20 -85 18 0 20 7 20 85 0 78 -2 85 -20 85&#10;-18 0 -20 -7 -20 -85z"/>
<path d="M2135 1478 c13 -35 28 -76 34 -92 12 -31 1 -56 -25 -56 -8 0 -14 -7&#10;-14 -15 0 -21 33 -19 53 3 17 19 31 49 71 156 23 60 24 66 8 66 -13 0 -24 -18&#10;-41 -70 -12 -38 -24 -70 -26 -70 -2 0 -14 32 -26 70 -17 52 -28 70 -41 70 -16&#10;0 -15 -5 7 -62z"/>
<path d="M740 1462 c0 -97 118 -173 199 -128 21 12 17 13 -42 12 -62 -1 -68 1&#10;-101 33 -29 28 -36 43 -36 72 0 21 -4 41 -10 44 -6 4 -10 -9 -10 -33z"/>
<path d="M884 1465 c1 -22 6 -25 39 -25 23 0 36 4 32 10 -3 6 -14 10 -23 10&#10;-15 0 -15 2 -2 10 13 8 57 4 69 -6 2 -2 5 -27 7 -55 2 -43 -1 -52 -17 -56 -28&#10;-8 -24 -33 6 -33 25 0 25 1 25 85 l0 85 -69 0 c-67 0 -69 -1 -67 -25z"/>
<path d="M784 1448 c3 -19 19 -45 38 -61 27 -24 40 -28 71 -24 38 5 77 31 77&#10;50 0 6 -10 1 -23 -11 -50 -47 -147 -12 -147 53 0 14 -5 25 -11 25 -8 0 -9 -11&#10;-5 -32z"/>
</g>
</svg>